<?xml version="1.0" encoding="iso-8859-1"?>
<!-- Generator: Adobe Illustrator 16.0.0, SVG Export Plug-In . SVG Version: 6.00 Build 0)  -->
<!DOCTYPE svg PUBLIC "-//W3C//DTD SVG 1.1//EN" "http://www.w3.org/Graphics/SVG/1.1/DTD/svg11.dtd">
<svg version="1.1" id="Capa_1" xmlns="http://www.w3.org/2000/svg" xmlns:xlink="http://www.w3.org/1999/xlink" x="0px" y="0px"
	 width="408.221px" height="408.221px" viewBox="0 0 408.221 408.221" style="enable-background:new 0 0 408.221 408.221;"
	 xml:space="preserve">
<g>
	<g>
		<path d="M204.11,0C91.388,0,0,91.388,0,204.111c0,112.725,91.388,204.11,204.11,204.11c112.729,0,204.11-91.385,204.11-204.11
			C408.221,91.388,316.839,0,204.11,0z M209.646,217.988l-77.596,44.494c-13.351,7.675-24.191,1.379-24.191-14.014v-88.704
			c0-15.409,10.84-21.692,24.191-14.022l77.596,44.497C223.018,197.901,223.018,210.33,209.646,217.988z M326.958,217.988
			l-77.6,44.494c-13.357,7.675-24.197,1.379-24.197-14.014v-88.704c0-15.409,10.84-21.692,24.197-14.022l77.6,44.497
			C340.327,197.901,340.327,210.33,326.958,217.988z"/>
	</g>
</g>
<g>
</g>
<g>
</g>
<g>
</g>
<g>
</g>
<g>
</g>
<g>
</g>
<g>
</g>
<g>
</g>
<g>
</g>
<g>
</g>
<g>
</g>
<g>
</g>
<g>
</g>
<g>
</g>
<g>
</g>
</svg>
